# xmcd
#
# Track frame offsets:
#	150
#	12670
#	21586
#	30496
#	37494
#	48267
#	75043
#	86743
#	95551
#	104774
#	115302
#	129355
#	139198
#	155031
#	164839
#	176042
#	188158
#	200308
#	216009
#	229742
#	243107
#	256893
#	264146
#
# Disc length: 3684 seconds
#
# Revision: 8
# Processed by: cddbd v1.5.1PL2 Copyright (c) Steve Scherf et al.
# Submitted via: EasyCDDAExtractor 8.2.1.1
#
DISCID=410e6217
DTITLE=????? - ???????????
DYEAR=1997
DGENRE=????????? ?????
TTITLE0=? ????????? ???????
TTITLE1=?? ??? ? ???, ??????
TTITLE2=????????
TTITLE3=?????????
TTITLE4=???? ??????
TTITLE5=???????? ? ????? ???????? ? ???? ?????????
TTITLE6=??????? ????
TTITLE7=??? ?????? ?? ???????...
TTITLE8=?????????? ???????????? "????-7"
TTITLE9=????? ? ???????? ?????????
TTITLE10=??????
TTITLE11=?????
TTITLE12=????????? ???????
TTITLE13=????? ? ??????
TTITLE14=???, ??????? ??????...
TTITLE15=????
TTITLE16=?????? ? ??????? ??????
TTITLE17=??? ?????????
TTITLE18=??? ??????
TTITLE19=??? ????, ????? ?? ???...
TTITLE20=???????
TTITLE21=???-????-???
TTITLE22=???????????
EXTD=
EXTT0=
EXTT1=
EXTT2=
EXTT3=
EXTT4=
EXTT5=
EXTT6=
EXTT7=
EXTT8=
EXTT9=
EXTT10=
EXTT11=
EXTT12=
EXTT13=
EXTT14=
EXTT15=
EXTT16=
EXTT17=
EXTT18=
EXTT19=
EXTT20=
EXTT21=
EXTT22=
PLAYORDER=
